<svg id="Layer_1" data-name="Layer 1" xmlns="http://www.w3.org/2000/svg" xmlns:xlink="http://www.w3.org/1999/xlink" viewBox="0 0 400 272.07"><defs><style>.cls-1{fill:none;}.cls-2{fill:url(#radial-gradient);}.cls-3{fill:url(#radial-gradient-2);}.cls-4{fill:url(#radial-gradient-3);}.cls-5{fill:#0e1538;}.cls-6{fill:#58595b;}</style><radialGradient id="radial-gradient" cx="200.96" cy="98.08" r="115.64" gradientUnits="userSpaceOnUse"><stop offset="0" stop-color="#0d74b8"/><stop offset="1" stop-color="#0e1538"/></radialGradient><radialGradient id="radial-gradient-2" cx="184.01" cy="135.81" r="78.98" xlink:href="#radial-gradient"/><radialGradient id="radial-gradient-3" cx="155.27" cy="168.77" r="46.97" xlink:href="#radial-gradient"/></defs><rect class="cls-1" width="400" height="272.07"/><path class="cls-2" d="M272.54,120.15c43.6-1.3,66.38-50.6,75.89-92.76-39.57,50-133.34,14.07-175.35,7.3-109-17.58-150,75.46-95.76,134.08C51.85,113.61,84.09,81.56,137,81.56,187.85,81.56,223.39,121.64,272.54,120.15Z"/><path class="cls-3" d="M224,174.23c28.88,5.79,51.37-23.16,64.05-49.44-33.64,26.84-89.84-11.07-116.43-21.93-69-28.18-110.16,26.76-83.42,73.58-8.34-40.16,17.74-56.32,52.51-48.26C174.18,135.94,191.45,167.71,224,174.23Z"/><path class="cls-4" d="M172.51,196.28c15.15,7.2,31.59-5.67,42.24-18.43-22.31,10.16-48.1-18.58-61.29-28.26-34.21-25.13-64.57-.49-56.29,29.09,1-23.35,17.62-28.66,35.71-19.39C150.29,168.22,155.43,188.17,172.51,196.28Z"/><path class="cls-5" d="M59.27,214.6a33.4,33.4,0,0,1-7.92-.93,23,23,0,0,1-6.28-2.42l3.54-8a22.45,22.45,0,0,0,5.19,2.16,20,20,0,0,0,5.56.82,11.63,11.63,0,0,0,2.49-.21,2.84,2.84,0,0,0,1.33-.61,1.28,1.28,0,0,0,.41-1,1.56,1.56,0,0,0-1-1.4,10.86,10.86,0,0,0-2.59-.86l-3.51-.74a31.41,31.41,0,0,1-3.84-1,14.9,14.9,0,0,1-3.54-1.72,8,8,0,0,1-2.58-2.82,8.8,8.8,0,0,1-1-4.35,9.59,9.59,0,0,1,1.7-5.51,11.56,11.56,0,0,1,5.07-4,20.9,20.9,0,0,1,8.41-1.49,30.25,30.25,0,0,1,6.51.7A20.52,20.52,0,0,1,73,183.37l-3.3,8a25.55,25.55,0,0,0-4.68-1.82,17.11,17.11,0,0,0-4.4-.6,8.9,8.9,0,0,0-2.51.28,2.74,2.74,0,0,0-1.33.74,1.55,1.55,0,0,0-.39,1,1.47,1.47,0,0,0,1,1.33,10.7,10.7,0,0,0,2.59.82c1.07.21,2.25.45,3.53.69a28,28,0,0,1,3.84,1,15,15,0,0,1,3.52,1.72,8,8,0,0,1,2.58,2.79,8.6,8.6,0,0,1,1,4.28,9.51,9.51,0,0,1-1.7,5.47,11.78,11.78,0,0,1-5,4A20.45,20.45,0,0,1,59.27,214.6Z"/><path class="cls-5" d="M77.69,213.85V181.27h10.8v32.58Zm9.82-7-.6-12.05,12.28-13.55h12L97.38,196.45l-6.1,6.23Zm11.59,7-9.59-12.66,7.13-7.54,15.17,20.2Z"/><path class="cls-5" d="M124.74,214.6a33.32,33.32,0,0,1-7.91-.93,22.87,22.87,0,0,1-6.28-2.42l3.54-8a22.56,22.56,0,0,0,5.18,2.16,20.09,20.09,0,0,0,5.57.82,11.63,11.63,0,0,0,2.49-.21,2.8,2.8,0,0,0,1.32-.61,1.25,1.25,0,0,0,.42-1,1.55,1.55,0,0,0-1-1.4,10.76,10.76,0,0,0-2.58-.86l-3.51-.74a30.92,30.92,0,0,1-3.84-1,14.9,14.9,0,0,1-3.54-1.72,8,8,0,0,1-2.58-2.82,8.8,8.8,0,0,1-1-4.35,9.59,9.59,0,0,1,1.7-5.51,11.56,11.56,0,0,1,5.07-4,20.88,20.88,0,0,1,8.4-1.49,30.35,30.35,0,0,1,6.52.7,20.52,20.52,0,0,1,5.77,2.14l-3.31,8a25.19,25.19,0,0,0-4.67-1.82,17.11,17.11,0,0,0-4.4-.6,8.86,8.86,0,0,0-2.51.28,2.69,2.69,0,0,0-1.33.74,1.56,1.56,0,0,0-.4,1,1.48,1.48,0,0,0,1,1.33,10.46,10.46,0,0,0,2.58.82c1.07.21,2.25.45,3.54.69a28,28,0,0,1,3.84,1,15.07,15.07,0,0,1,3.51,1.72,8.07,8.07,0,0,1,2.59,2.79,8.6,8.6,0,0,1,1,4.28,9.5,9.5,0,0,1-1.69,5.47,11.78,11.78,0,0,1-5.05,4A20.53,20.53,0,0,1,124.74,214.6Z"/><path class="cls-6" d="M52.41,243.33V224.89H45.19v-2.62H62.61v2.62H55.39v18.44Z"/><path class="cls-6" d="M65.07,243.33v-16h2.77v4.33l-.27-1.08a4.92,4.92,0,0,1,2.23-2.53,7.8,7.8,0,0,1,3.85-.87V230l-.35,0H73a4.89,4.89,0,0,0-3.67,1.38,5.48,5.48,0,0,0-1.36,4v8Z"/><path class="cls-6" d="M80.69,243.51a7.42,7.42,0,0,1-3.12-.61,4.77,4.77,0,0,1-2.06-1.66,4.26,4.26,0,0,1-.72-2.43,4.55,4.55,0,0,1,.62-2.34,4.27,4.27,0,0,1,2-1.69,9.34,9.34,0,0,1,3.78-.63h5v2.08H81.32a4.31,4.31,0,0,0-2.92.72,2.32,2.32,0,0,0-.75,1.74,2.23,2.23,0,0,0,.93,1.88,4.2,4.2,0,0,0,2.59.71,5.47,5.47,0,0,0,2.84-.72,4.09,4.09,0,0,0,1.76-2.11l.57,2a4.49,4.49,0,0,1-2,2.24A7.29,7.29,0,0,1,80.69,243.51Zm5.23-.18V240l-.15-.63v-5.75a3.72,3.72,0,0,0-1.07-2.84,4.52,4.52,0,0,0-3.2-1,8.19,8.19,0,0,0-2.77.47,7.26,7.26,0,0,0-2.29,1.24l-1.2-2.16a8.72,8.72,0,0,1,3-1.52,12.5,12.5,0,0,1,3.63-.53,7.27,7.27,0,0,1,5,1.6,6.19,6.19,0,0,1,1.78,4.87v9.63Z"/><path class="cls-6" d="M97.89,243.33l-7-16h3l6.2,14.44H98.67L105,227.38h2.83l-7,16Z"/><path class="cls-6" d="M117.17,243.51a9.17,9.17,0,0,1-4.49-1.06,7.53,7.53,0,0,1-3-2.88,8.27,8.27,0,0,1-1.07-4.22,8.45,8.45,0,0,1,1-4.21,7.44,7.44,0,0,1,2.86-2.87,8.14,8.14,0,0,1,4.1-1,8,8,0,0,1,4.09,1,7.18,7.18,0,0,1,2.78,2.87,8.77,8.77,0,0,1,1,4.31c0,.12,0,.27,0,.43s0,.31,0,.45H110.86v-2.08h12.06l-1.18.72a5.35,5.35,0,0,0-.63-2.73,4.77,4.77,0,0,0-1.82-1.88,5.24,5.24,0,0,0-2.69-.68,5.31,5.31,0,0,0-2.68.68,4.76,4.76,0,0,0-1.83,1.89,5.74,5.74,0,0,0-.66,2.78v.48a5.5,5.5,0,0,0,.73,2.85,5.14,5.14,0,0,0,2.06,1.94,6.52,6.52,0,0,0,3,.69,6.7,6.7,0,0,0,2.58-.48,5.63,5.63,0,0,0,2-1.45l1.59,1.87a7,7,0,0,1-2.69,1.92A9.24,9.24,0,0,1,117.17,243.51Z"/><path class="cls-6" d="M128.48,243.33V221h2.89v22.32Z"/><path class="cls-6" d="M151,243.57a9.6,9.6,0,0,1-3.79-.7,6.32,6.32,0,0,1-2.61-1.92,4.48,4.48,0,0,1-1-2.86,5.32,5.32,0,0,1,.64-2.59,7.68,7.68,0,0,1,2-2.27,23.05,23.05,0,0,1,3.64-2.27,28,28,0,0,0,2.87-1.68,5.73,5.73,0,0,0,1.48-1.37,2.46,2.46,0,0,0,.43-1.4,2.14,2.14,0,0,0-.72-1.67,3,3,0,0,0-2.08-.65,3.24,3.24,0,0,0-2.21.71,2.36,2.36,0,0,0-.79,1.85,3.14,3.14,0,0,0,.19,1.1,4.31,4.31,0,0,0,.72,1.17c.36.43.86,1,1.52,1.64l11.13,11.07-1.62,1.93L149,231.9a16.45,16.45,0,0,1-1.66-1.88,6.41,6.41,0,0,1-.87-1.61,4.93,4.93,0,0,1-.27-1.6,4.4,4.4,0,0,1,.71-2.48,4.62,4.62,0,0,1,2-1.65,7,7,0,0,1,3-.59,6.55,6.55,0,0,1,2.77.53,4,4,0,0,1,2.47,3.86,4.43,4.43,0,0,1-.59,2.23,6.77,6.77,0,0,1-1.88,2,24.07,24.07,0,0,1-3.49,2.08,18.5,18.5,0,0,0-2.82,1.73,5.38,5.38,0,0,0-1.46,1.58,3.46,3.46,0,0,0-.44,1.71,2.83,2.83,0,0,0,.59,1.76,3.75,3.75,0,0,0,1.65,1.19,6.75,6.75,0,0,0,2.48.42,7.56,7.56,0,0,0,3.64-.87,7.34,7.34,0,0,0,2.73-2.62,12.74,12.74,0,0,0,1.6-4.33l2.32.75a13.5,13.5,0,0,1-2.06,5.14,9.85,9.85,0,0,1-3.59,3.22A10.2,10.2,0,0,1,151,243.57Z"/><path class="cls-6" d="M178.3,243.33V224.89h-7.22v-2.62h17.41v2.62h-7.22v18.44Z"/><path class="cls-6" d="M196.52,243.51a8.46,8.46,0,0,1-4.25-1.06,7.8,7.8,0,0,1-3-2.9,8.16,8.16,0,0,1-1.08-4.2,8,8,0,0,1,1.08-4.19,8,8,0,0,1,2.95-2.87,8.48,8.48,0,0,1,4.27-1.06,8.67,8.67,0,0,1,4.26,1,7.61,7.61,0,0,1,2.95,2.87,8.84,8.84,0,0,1,0,8.43,7.7,7.7,0,0,1-2.95,2.88A8.47,8.47,0,0,1,196.52,243.51Zm0-2.53a5.52,5.52,0,0,0,2.76-.69,5,5,0,0,0,1.91-2,6.15,6.15,0,0,0,.69-3,6,6,0,0,0-.69-3,5,5,0,0,0-1.91-1.94,5.52,5.52,0,0,0-2.76-.69,5.38,5.38,0,0,0-2.73.69,5.14,5.14,0,0,0-1.93,1.94,5.82,5.82,0,0,0-.72,3,5.94,5.94,0,0,0,.72,3,5.08,5.08,0,0,0,1.93,2A5.38,5.38,0,0,0,196.52,241Z"/><path class="cls-6" d="M215.5,243.51a8,8,0,0,1-3.59-.76,5.36,5.36,0,0,1-2.41-2.3,8,8,0,0,1-.85-3.89v-9.18h2.88v8.85a4.93,4.93,0,0,0,1.13,3.52,4.2,4.2,0,0,0,3.18,1.17,5.3,5.3,0,0,0,2.61-.62,4.22,4.22,0,0,0,1.72-1.8,6.32,6.32,0,0,0,.6-2.88v-8.24h2.89v16h-2.74V239l.45,1.15a5.53,5.53,0,0,1-2.35,2.46A7,7,0,0,1,215.5,243.51Z"/><path class="cls-6" d="M229.16,243.33v-16h2.77v4.33l-.27-1.08a4.94,4.94,0,0,1,2.22-2.53,7.85,7.85,0,0,1,3.85-.87V230l-.34,0h-.32a4.91,4.91,0,0,0-3.67,1.38,5.52,5.52,0,0,0-1.35,4v8Z"/><path class="cls-6" d="M242.73,224.31a1.92,1.92,0,0,1-1.4-.54,1.78,1.78,0,0,1-.56-1.32,1.81,1.81,0,0,1,.56-1.35,1.92,1.92,0,0,1,1.4-.54,2,2,0,0,1,1.4.52,1.73,1.73,0,0,1,.55,1.31,1.87,1.87,0,0,1-2,1.92Zm-1.45,19v-16h2.89v16Z"/><path class="cls-6" d="M254.25,243.51a12.66,12.66,0,0,1-3.78-.55,8.87,8.87,0,0,1-2.81-1.32l1.2-2.29a9.59,9.59,0,0,0,2.53,1.18,10,10,0,0,0,3.07.48,5.57,5.57,0,0,0,2.9-.57,1.8,1.8,0,0,0,.89-1.6,1.4,1.4,0,0,0-.54-1.17,3.71,3.71,0,0,0-1.43-.63c-.6-.14-1.25-.27-2-.38s-1.45-.25-2.17-.42a8.6,8.6,0,0,1-2-.72,3.7,3.7,0,0,1-1.45-1.29,4,4,0,0,1-.54-2.21,4.09,4.09,0,0,1,.81-2.53,5.16,5.16,0,0,1,2.3-1.67,9.68,9.68,0,0,1,3.54-.59,13.93,13.93,0,0,1,3.17.38,7.89,7.89,0,0,1,2.63,1.07L259.39,231a6.75,6.75,0,0,0-2.26-1,10.38,10.38,0,0,0-2.34-.27,5.19,5.19,0,0,0-2.83.62,1.83,1.83,0,0,0-.93,1.58,1.48,1.48,0,0,0,.55,1.24,4.16,4.16,0,0,0,1.45.68,17.87,17.87,0,0,0,2,.41q1.08.17,2.16.42a8.89,8.89,0,0,1,2,.7,3.92,3.92,0,0,1,1.44,1.27,3.76,3.76,0,0,1,.56,2.16,3.88,3.88,0,0,1-.85,2.5,5.44,5.44,0,0,1-2.37,1.64A10.35,10.35,0,0,1,254.25,243.51Z"/><path class="cls-6" d="M284.69,227.23a7.43,7.43,0,0,1,3.4.75,5.41,5.41,0,0,1,2.3,2.29,8.14,8.14,0,0,1,.83,3.88v9.18h-2.89v-8.85a5,5,0,0,0-1.09-3.49,3.92,3.92,0,0,0-3-1.17,5.12,5.12,0,0,0-2.53.6A4,4,0,0,0,280,232.2a6.47,6.47,0,0,0-.59,2.91v8.22h-2.88v-8.85a5,5,0,0,0-1.07-3.49,3.92,3.92,0,0,0-3.05-1.17,5.05,5.05,0,0,0-2.5.6,4.16,4.16,0,0,0-1.69,1.78,6.34,6.34,0,0,0-.6,2.91v8.22h-2.89v-16h2.77v4.24l-.45-1.08a5.46,5.46,0,0,1,2.32-2.44,7.34,7.34,0,0,1,3.64-.87,6.86,6.86,0,0,1,3.94,1.13,5.34,5.34,0,0,1,2.16,3.41l-1.17-.48a6,6,0,0,1,2.53-2.94A7.77,7.77,0,0,1,284.69,227.23Z"/></svg>